<svg width="424" height="424" viewBox="0 0 424 424" fill="none" xmlns="http://www.w3.org/2000/svg">
<mask id="mask0_930_17085" style="mask-type:alpha" maskUnits="userSpaceOnUse" x="0" y="0" width="424" height="424">
<rect width="424" height="424" fill="#D9D9D9"/>
</mask>
<g mask="url(#mask0_930_17085)">
<g clip-path="url(#clip0_930_17085)">
<mask id="mask1_930_17085" style="mask-type:luminance" maskUnits="userSpaceOnUse" x="-305" y="-116" width="1035" height="546">
<path d="M729.913 -116H-305V429.37H729.913V-116Z" fill="white"/>
</mask>
<g mask="url(#mask1_930_17085)">
<path d="M2455.78 50.292C2442.19 29.7359 2426.46 8.7245 2386.86 -8.98187C2347.26 -26.6887 2278.41 -40.6402 2205.19 -39.403C2070.92 -37.1344 1977.69 12.5406 1845.51 4.87334C1744.92 -0.961998 1688.36 -38.338 1585.98 -39.6597C1480.29 -41.0246 1413.46 -2.7817 1307.97 -1.02742C1200.07 0.766838 1126.66 -35.7713 1019.63 -40.5744C882.644 -46.7218 778.847 0.710052 640.405 0.0607758C506.262 -0.568512 406.802 -46.0603 273.347 -42.644C168.669 -39.9646 96.8583 -7.69287 -7.9201 -5.31067C-66.8873 -3.96985 -123.009 -12.5286 -173.539 -21.474C-242.037 -33.6 -320.216 -48.4639 -402.893 -39.3135C-451.318 -33.9539 -477.398 -24.9894 -488.483 -11.0078C-502.921 7.20286 -519.185 24.5439 -538.62 42.4534C-588.492 88.4113 -628.044 136.043 -623.743 184.617C-617.851 251.154 -513.586 321.371 -307.493 353.582C-161.579 376.388 12.0138 377.361 177.708 377.773C560.78 378.727 943.851 379.68 1326.92 380.634C1517.83 381.109 1710.91 381.518 1896.22 369.08C2081.52 356.641 2261.17 329.881 2370.23 285.693C2533.34 219.6 2508.65 130.249 2455.78 50.292Z" fill="#B5F6FF"/>
<path d="M1956.26 139.974C1942.66 119.418 1926.93 98.4066 1887.33 80.7002C1847.73 62.9939 1778.89 49.0423 1705.66 50.2795C1571.39 52.5482 1478.17 102.223 1345.98 94.5559C1245.39 88.7206 1188.83 51.3446 1086.45 50.0228C980.762 48.6584 913.932 86.9009 808.439 88.6552C700.54 90.4494 627.132 53.9112 520.105 49.1082C383.117 42.9607 279.32 90.3931 140.878 89.7438C6.73596 89.1145 -92.7253 43.6227 -226.181 47.0386C-330.858 49.718 -402.669 81.9893 -507.448 84.3719C-566.415 85.7127 -622.536 77.1535 -673.066 68.2086C-741.564 56.0826 -819.743 41.2187 -902.42 50.3691C-950.845 55.7287 -976.926 64.6932 -988.01 78.6747C-1002.45 96.8854 -1018.71 114.227 -1038.15 132.136C-1088.02 178.094 -1127.57 225.725 -1123.27 274.3C-1117.38 340.836 -1013.11 411.053 -807.022 443.265C-661.107 466.07 -487.514 467.043 -321.82 467.456C61.2515 468.409 444.323 469.363 827.395 470.316C1018.3 470.792 1211.39 471.201 1396.69 458.762C1581.99 446.323 1761.65 419.563 1870.7 375.376C2033.82 309.282 2009.12 219.931 1956.26 139.974Z" fill="#75E2FF"/>
<path d="M2455.78 178.363C2442.19 157.807 2426.46 136.796 2386.86 119.089C2347.26 101.383 2278.41 87.431 2205.19 88.6687C2070.92 90.9373 1977.69 140.612 1845.51 132.945C1744.92 127.11 1688.36 89.7333 1585.98 88.4116C1480.29 87.0471 1413.46 125.29 1307.97 127.044C1200.07 128.838 1126.66 92.3 1019.63 87.4969C882.644 81.3495 778.847 128.782 640.405 128.132C506.262 127.503 406.802 82.011 273.347 85.4273C168.669 88.1067 96.859 120.378 -7.9201 122.761C-66.8873 124.101 -123.009 115.543 -173.539 106.598C-242.037 94.4713 -320.216 79.6079 -402.893 88.7582C-451.318 94.1179 -477.398 103.082 -488.483 117.064C-502.921 135.275 -519.185 152.616 -538.62 170.525C-588.492 216.483 -628.044 264.114 -623.743 312.689C-617.851 379.225 -513.586 449.443 -307.493 481.653C-161.579 504.459 12.0138 505.432 177.708 505.844C560.78 506.798 943.851 507.751 1326.92 508.705C1517.83 509.181 1710.91 509.59 1896.22 497.151C2081.52 484.713 2261.17 457.952 2370.23 413.765C2533.34 347.671 2508.65 258.32 2455.78 178.363Z" fill="#49C5F5"/>
<path d="M1956.26 268.045C1942.66 247.489 1926.93 226.477 1887.33 208.771C1847.73 191.064 1778.89 177.113 1705.66 178.35C1571.39 180.619 1478.17 230.294 1345.98 222.626C1245.39 216.791 1188.83 179.415 1086.45 178.093C980.762 176.729 913.932 214.971 808.439 216.726C700.54 218.52 627.132 181.982 520.105 177.179C383.117 171.031 279.32 218.463 140.878 217.814C6.73596 217.184 -92.7253 171.693 -226.181 175.109C-330.858 177.788 -402.669 210.06 -507.448 212.442C-566.415 213.783 -622.536 205.224 -673.066 196.279C-741.564 184.153 -819.743 169.289 -902.42 178.439C-950.845 183.799 -976.926 192.764 -988.01 206.745C-1002.45 224.956 -1018.71 242.297 -1038.15 260.206C-1088.02 306.164 -1127.57 353.795 -1123.27 402.37C-1117.38 468.907 -1013.11 539.124 -807.022 571.335C-661.107 594.141 -487.514 595.113 -321.82 595.526C61.2515 596.479 444.323 597.433 827.395 598.386C1018.3 598.861 1211.39 599.271 1396.69 586.832C1581.99 574.394 1761.65 547.633 1870.7 503.446C2033.82 437.352 2009.12 348.002 1956.26 268.045Z" fill="#1995E7"/>
</g>
</g>
<rect x="267.004" y="66.2356" width="390.581" height="368.134" rx="128.913" fill="#E4F3FF"/>
<path d="M657.585 250.302C657.585 401.549 534.976 434.369 383.73 434.369C232.483 434.369 109.874 401.549 109.874 250.302C109.874 99.0562 232.483 66.2356 383.73 66.2356C534.976 66.2356 657.585 99.0562 657.585 250.302Z" fill="#0362AD"/>
<path d="M122.153 295.396C102.791 235.125 148.214 173.613 211.514 174.382L447.972 177.253C463.64 177.443 477.268 188.032 481.324 203.167C485.613 219.174 478.077 235.994 463.277 243.448L252.077 349.822C201.245 375.425 139.56 349.585 122.153 295.396Z" fill="#E4F3FF"/>
<path d="M370.261 250.303C370.261 368.349 313.981 393.965 244.557 393.965C175.132 393.965 118.852 368.349 118.852 250.303C118.852 132.257 175.132 106.641 244.557 106.641C313.981 106.641 370.261 132.257 370.261 250.303Z" fill="#0362AD"/>
<g filter="url(#filter0_i_930_17085)">
<path d="M316.387 256.87C316.387 361.926 188.41 413.458 115.609 337.716L67.9934 288.177C60.2982 280.171 56.0002 269.498 56.0002 258.393C56.0002 247.737 59.9586 237.461 67.1072 229.559L113.204 178.603C184.836 99.4194 316.387 150.093 316.387 256.87Z" fill="#E4F3FF"/>
</g>
<circle cx="233.333" cy="225.611" r="69.5862" fill="white"/>
<circle cx="233.333" cy="225.61" r="53.213" fill="#2D2D2D"/>
<g filter="url(#filter1_d_930_17085)">
<circle cx="249.707" cy="201.051" r="16.3732" fill="#DBDBDB" fill-opacity="0.64" shape-rendering="crispEdges"/>
</g>
<path d="M207.774 30.417C254.48 29.3581 299.797 46.3054 334.297 77.7314C368.796 109.157 389.823 152.642 393.005 199.141C396.187 245.639 381.278 291.572 351.379 327.384L350.575 328.347L351.463 329.232L455.354 432.884H455.355C458.129 435.749 459.664 439.587 459.629 443.569C459.594 447.552 457.993 451.362 455.17 454.179C452.346 456.996 448.526 458.594 444.531 458.629C440.537 458.664 436.688 457.131 433.815 454.363L329.925 350.712L329.041 349.83L328.081 350.628C292.186 380.458 246.144 395.334 199.535 392.159C152.926 388.985 109.339 368.005 77.8398 333.585C46.3413 299.165 29.3558 253.956 30.417 207.361C31.4783 160.767 50.5047 116.373 83.5381 83.416C116.571 50.4592 161.069 31.4759 207.774 30.417Z" fill="url(#paint0_linear_930_17085)" stroke="url(#paint1_linear_930_17085)" stroke-width="2.74082"/>
</g>
<defs>
<filter id="filter0_i_930_17085" x="56.0002" y="139.969" width="260.387" height="233.802" filterUnits="userSpaceOnUse" color-interpolation-filters="sRGB">
<feFlood flood-opacity="0" result="BackgroundImageFix"/>
<feBlend mode="normal" in="SourceGraphic" in2="BackgroundImageFix" result="shape"/>
<feColorMatrix in="SourceAlpha" type="matrix" values="0 0 0 0 0 0 0 0 0 0 0 0 0 0 0 0 0 0 127 0" result="hardAlpha"/>
<feOffset dy="21.4854"/>
<feComposite in2="hardAlpha" operator="arithmetic" k2="-1" k3="1"/>
<feColorMatrix type="matrix" values="0 0 0 0 0.0117647 0 0 0 0 0.384314 0 0 0 0 0.678431 0 0 0 0.24 0"/>
<feBlend mode="normal" in2="shape" result="effect1_innerShadow_930_17085"/>
</filter>
<filter id="filter1_d_930_17085" x="211.848" y="184.677" width="75.7173" height="75.7172" filterUnits="userSpaceOnUse" color-interpolation-filters="sRGB">
<feFlood flood-opacity="0" result="BackgroundImageFix"/>
<feColorMatrix in="SourceAlpha" type="matrix" values="0 0 0 0 0 0 0 0 0 0 0 0 0 0 0 0 0 0 127 0" result="hardAlpha"/>
<feOffset dy="21.4854"/>
<feGaussianBlur stdDeviation="10.7427"/>
<feComposite in2="hardAlpha" operator="out"/>
<feColorMatrix type="matrix" values="0 0 0 0 0 0 0 0 0 0 0 0 0 0 0 0 0 0 0.25 0"/>
<feBlend mode="normal" in2="BackgroundImageFix" result="effect1_dropShadow_930_17085"/>
<feBlend mode="normal" in="SourceGraphic" in2="effect1_dropShadow_930_17085" result="shape"/>
</filter>
<linearGradient id="paint0_linear_930_17085" x1="406.839" y1="56.1395" x2="104.049" y2="510.425" gradientUnits="userSpaceOnUse">
<stop stop-color="white" stop-opacity="0.48"/>
<stop offset="1" stop-color="white" stop-opacity="0.2"/>
</linearGradient>
<linearGradient id="paint1_linear_930_17085" x1="245" y1="29" x2="245" y2="460" gradientUnits="userSpaceOnUse">
<stop stop-color="white" stop-opacity="0"/>
<stop offset="1" stop-color="white"/>
</linearGradient>
<clipPath id="clip0_930_17085">
<rect width="1035" height="545.727" fill="white" transform="translate(-305 -116)"/>
</clipPath>
</defs>
</svg>
